<svg width="512" height="581" viewBox="0 0 512 581" fill="none" xmlns="http://www.w3.org/2000/svg">
<path d="M265.66 566.508C259.642 569.979 252.234 569.979 246.216 566.508L21.4864 436.756C15.4684 433.285 11.7642 426.868 11.7642 419.917L11.7642 160.431C11.7642 153.479 15.4684 147.063 21.4864 143.592L246.216 13.839C252.234 10.3682 259.642 10.3682 265.66 13.839L490.389 143.592C496.407 147.063 500.111 153.479 500.111 160.431V419.917C500.111 426.868 496.407 433.285 490.389 436.756L265.66 566.508Z" fill="white" stroke="white" stroke-width="22.2222"/>
<path fill-rule="evenodd" clip-rule="evenodd" d="M161.594 180.906H219.781C220.109 180.906 220.375 181.172 220.375 181.5V221.875C220.375 222.203 220.109 222.469 219.781 222.469H161.594C161.266 222.469 161 222.203 161 221.875V181.5C161 181.172 161.266 180.906 161.594 180.906ZM207.312 208.219H213.547C213.875 208.219 214.141 208.485 214.141 208.812V215.047C214.141 215.375 213.875 215.641 213.547 215.641H207.312C206.985 215.641 206.719 215.375 206.719 215.047V208.812C206.719 208.485 206.985 208.219 207.312 208.219Z" fill="#DDDDDD"/>
<path d="M342.984 153H299.641C299.313 153 299.047 153.266 299.047 153.594V191C299.047 191.328 299.313 191.594 299.641 191.594H342.984C343.312 191.594 343.578 191.328 343.578 191V153.594C343.578 153.266 343.312 153 342.984 153Z" fill="#DDDDDD"/>
<path d="M350.406 190.703H292.219C291.891 190.703 291.625 190.969 291.625 191.297V197.531C291.625 197.859 291.891 198.125 292.219 198.125H350.406C350.734 198.125 351 197.859 351 197.531V191.297C351 190.969 350.734 190.703 350.406 190.703Z" fill="#DDDDDD"/>
<path fill-rule="evenodd" clip-rule="evenodd" d="M161.594 228.703H219.781C220.109 228.703 220.375 228.969 220.375 229.297V302.328C220.375 302.656 220.109 302.922 219.781 302.922H161.594C161.266 302.922 161 302.656 161 302.328V229.297C161 228.969 161.266 228.703 161.594 228.703ZM207.312 236.125H213.547C213.875 236.125 214.141 236.391 214.141 236.719V250.375C214.141 250.703 213.875 250.969 213.547 250.969H207.312C206.985 250.969 206.719 250.703 206.719 250.375V236.719C206.719 236.391 206.985 236.125 207.312 236.125Z" fill="#DDDDDD"/>
<path fill-rule="evenodd" clip-rule="evenodd" d="M226.906 228.703H285.094C285.422 228.703 285.688 228.969 285.688 229.297V262.25C285.688 262.578 285.422 262.844 285.094 262.844H226.906C226.578 262.844 226.312 262.578 226.312 262.25V229.297C226.312 228.969 226.578 228.703 226.906 228.703ZM245.609 240.578H266.688C267.015 240.578 267.281 240.844 267.281 241.172V250.375C267.281 250.703 267.015 250.969 266.688 250.969H245.609C245.281 250.969 245.016 250.703 245.016 250.375V241.172C245.016 240.844 245.281 240.578 245.609 240.578Z" fill="#DDDDDD"/>
<path fill-rule="evenodd" clip-rule="evenodd" d="M292.219 268.781H350.406C350.734 268.781 351 269.047 351 269.375V302.328C351 302.656 350.734 302.922 350.406 302.922H292.219C291.891 302.922 291.625 302.656 291.625 302.328V269.375C291.625 269.047 291.891 268.781 292.219 268.781ZM333.781 277.094H342.984C343.312 277.094 343.578 277.36 343.578 277.688V294.312C343.578 294.64 343.312 294.906 342.984 294.906H333.781C333.453 294.906 333.188 294.64 333.188 294.312V277.688C333.188 277.36 333.453 277.094 333.781 277.094Z" fill="#DDDDDD"/>
<path fill-rule="evenodd" clip-rule="evenodd" d="M226.609 268.781H284.797C285.125 268.781 285.391 269.047 285.391 269.375V302.328C285.391 302.656 285.125 302.922 284.797 302.922H226.609C226.281 302.922 226.016 302.656 226.016 302.328V269.375C226.016 269.047 226.281 268.781 226.609 268.781ZM245.609 280.656H266.688C267.015 280.656 267.281 280.922 267.281 281.25V290.453C267.281 290.781 267.015 291.047 266.688 291.047H245.609C245.281 291.047 245.016 290.781 245.016 290.453V281.25C245.016 280.922 245.281 280.656 245.609 280.656Z" fill="#DDDDDD"/>
<path fill-rule="evenodd" clip-rule="evenodd" d="M350.406 228.703H292.219C291.891 228.703 291.625 228.969 291.625 229.297V262.25C291.625 262.578 291.891 262.844 292.219 262.844H350.406C350.734 262.844 351 262.578 351 262.25V229.297C351 228.969 350.734 228.703 350.406 228.703ZM308.844 240.578H299.641C299.313 240.578 299.047 240.844 299.047 241.172V250.375C299.047 250.703 299.313 250.969 299.641 250.969H308.844C309.172 250.969 309.438 250.703 309.438 250.375V241.172C309.438 240.844 309.172 240.578 308.844 240.578ZM315.969 240.578H325.172C325.5 240.578 325.766 240.844 325.766 241.172V250.375C325.766 250.703 325.5 250.969 325.172 250.969H315.969C315.641 250.969 315.375 250.703 315.375 250.375V241.172C315.375 240.844 315.641 240.578 315.969 240.578Z" fill="#DDDDDD"/>
<path d="M60.584 398.648C55.784 398.648 52.04 397.424 49.352 394.976C46.712 392.48 45.392 388.928 45.392 384.32V344.576H59.072V383.6C59.072 385.04 59.432 386.144 60.152 386.912C60.92 387.68 61.976 388.064 63.32 388.064C64.424 388.064 65.456 387.824 66.416 387.344L66.992 397.64C64.928 398.312 62.792 398.648 60.584 398.648ZM112.94 358.976V398H99.9078V393.824C98.4678 395.408 96.7398 396.608 94.7238 397.424C92.7078 398.24 90.5718 398.648 88.3158 398.648C83.2758 398.648 79.2438 397.16 76.2198 394.184C73.2438 391.208 71.7558 386.744 71.7558 380.792V358.976H85.4358V378.56C85.4358 381.488 85.9878 383.624 87.0918 384.968C88.1958 386.312 89.8038 386.984 91.9158 386.984C94.0758 386.984 95.8278 386.24 97.1718 384.752C98.5638 383.216 99.2598 380.888 99.2598 377.768V358.976H112.94ZM139.463 384.32L135.431 388.424V398H121.751V344.576H135.431V372.584L149.399 358.976H165.599L149.399 375.68L166.967 398H150.407L139.463 384.32ZM190.233 388.208C192.105 388.208 193.713 387.944 195.057 387.416C196.449 386.888 197.841 386.024 199.233 384.824L206.361 392.312C202.665 396.536 197.145 398.648 189.801 398.648C185.241 398.648 181.233 397.784 177.777 396.056C174.321 394.328 171.633 391.928 169.713 388.856C167.841 385.784 166.905 382.304 166.905 378.416C166.905 374.576 167.841 371.144 169.713 368.12C171.585 365.048 174.153 362.648 177.417 360.92C180.729 359.192 184.425 358.328 188.505 358.328C192.297 358.328 195.753 359.12 198.873 360.704C202.041 362.24 204.561 364.52 206.433 367.544C208.305 370.52 209.241 374.072 209.241 378.2L181.377 383.528C182.865 386.648 185.817 388.208 190.233 388.208ZM188.577 368.048C186.225 368.048 184.305 368.792 182.817 370.28C181.329 371.72 180.489 373.808 180.297 376.544L196.137 373.448C195.657 371.816 194.745 370.52 193.401 369.56C192.057 368.552 190.449 368.048 188.577 368.048ZM261.053 358.328C264.605 358.328 267.821 359.144 270.701 360.776C273.629 362.408 275.933 364.76 277.613 367.832C279.341 370.856 280.205 374.384 280.205 378.416C280.205 382.448 279.341 386 277.613 389.072C275.933 392.144 273.629 394.52 270.701 396.2C267.821 397.832 264.605 398.648 261.053 398.648C255.917 398.648 252.077 397.136 249.533 394.112V398H236.501V344.576H250.181V362.36C252.821 359.672 256.445 358.328 261.053 358.328ZM258.173 387.776C260.573 387.776 262.541 386.96 264.077 385.328C265.613 383.648 266.381 381.344 266.381 378.416C266.381 375.536 265.613 373.28 264.077 371.648C262.541 370.016 260.573 369.2 258.173 369.2C255.773 369.2 253.805 370.016 252.269 371.648C250.733 373.28 249.965 375.536 249.965 378.416C249.965 381.344 250.733 383.648 252.269 385.328C253.805 386.96 255.773 387.776 258.173 387.776ZM327.604 358.976V398H314.572V393.824C313.132 395.408 311.404 396.608 309.388 397.424C307.372 398.24 305.236 398.648 302.98 398.648C297.94 398.648 293.908 397.16 290.884 394.184C287.908 391.208 286.42 386.744 286.42 380.792V358.976H300.1V378.56C300.1 381.488 300.652 383.624 301.756 384.968C302.86 386.312 304.468 386.984 306.58 386.984C308.74 386.984 310.492 386.24 311.836 384.752C313.228 383.216 313.924 380.888 313.924 377.768V358.976H327.604ZM336.415 358.976H350.095V398H336.415V358.976ZM343.255 354.656C340.759 354.656 338.743 353.96 337.207 352.568C335.671 351.176 334.903 349.448 334.903 347.384C334.903 345.32 335.671 343.592 337.207 342.2C338.743 340.808 340.759 340.112 343.255 340.112C345.751 340.112 347.767 340.784 349.303 342.128C350.839 343.424 351.607 345.104 351.607 347.168C351.607 349.328 350.839 351.128 349.303 352.568C347.767 353.96 345.751 354.656 343.255 354.656ZM374.178 398.648C369.378 398.648 365.634 397.424 362.946 394.976C360.306 392.48 358.986 388.928 358.986 384.32V344.576H372.666V383.6C372.666 385.04 373.026 386.144 373.746 386.912C374.514 387.68 375.57 388.064 376.914 388.064C378.018 388.064 379.05 387.824 380.01 387.344L380.586 397.64C378.522 398.312 376.386 398.648 374.178 398.648ZM426.262 344.576V398H413.23V394.112C410.686 397.136 406.87 398.648 401.782 398.648C398.23 398.648 394.99 397.832 392.062 396.2C389.134 394.52 386.806 392.144 385.078 389.072C383.398 386 382.558 382.448 382.558 378.416C382.558 374.384 383.398 370.856 385.078 367.832C386.806 364.76 389.134 362.408 392.062 360.776C394.99 359.144 398.23 358.328 401.782 358.328C406.438 358.328 410.038 359.672 412.582 362.36V344.576H426.262ZM404.662 387.776C407.014 387.776 408.958 386.96 410.494 385.328C412.03 383.648 412.798 381.344 412.798 378.416C412.798 375.536 412.03 373.28 410.494 371.648C409.006 370.016 407.062 369.2 404.662 369.2C402.262 369.2 400.294 370.016 398.758 371.648C397.222 373.28 396.454 375.536 396.454 378.416C396.454 381.344 397.222 383.648 398.758 385.328C400.294 386.96 402.262 387.776 404.662 387.776ZM449.248 398.648C445.984 398.648 442.768 398.288 439.6 397.568C436.432 396.8 433.888 395.816 431.968 394.616L436.072 385.256C437.848 386.36 439.96 387.248 442.408 387.92C444.856 388.544 447.28 388.856 449.68 388.856C451.888 388.856 453.448 388.64 454.36 388.208C455.32 387.728 455.8 387.056 455.8 386.192C455.8 385.328 455.224 384.728 454.072 384.392C452.968 384.008 451.192 383.648 448.744 383.312C445.624 382.928 442.96 382.424 440.752 381.8C438.592 381.176 436.72 380.024 435.136 378.344C433.552 376.664 432.76 374.312 432.76 371.288C432.76 368.792 433.504 366.584 434.992 364.664C436.48 362.696 438.64 361.16 441.472 360.056C444.352 358.904 447.784 358.328 451.768 358.328C454.6 358.328 457.408 358.616 460.192 359.192C462.976 359.768 465.304 360.584 467.176 361.64L463.072 370.928C459.616 369.008 455.872 368.048 451.84 368.048C449.68 368.048 448.096 368.312 447.088 368.84C446.08 369.32 445.576 369.968 445.576 370.784C445.576 371.696 446.128 372.344 447.232 372.728C448.336 373.064 450.16 373.424 452.704 373.808C455.92 374.288 458.584 374.84 460.696 375.464C462.808 376.088 464.632 377.24 466.168 378.92C467.752 380.552 468.544 382.856 468.544 385.832C468.544 388.28 467.8 390.488 466.312 392.456C464.824 394.376 462.616 395.888 459.688 396.992C456.808 398.096 453.328 398.648 449.248 398.648Z" fill="#91A4B4"/>
</svg>
