<svg width="512" height="581" viewBox="0 0 512 581" fill="none" xmlns="http://www.w3.org/2000/svg">
<path d="M265.896 567.273C259.878 570.743 252.469 570.743 246.451 567.273L21.7222 437.52C15.7042 434.049 12 427.632 12 420.681L12 161.195C12 154.243 15.7042 147.827 21.7222 144.356L246.451 14.6032C252.469 11.1324 259.878 11.1324 265.896 14.6032L490.625 144.356C496.643 147.827 500.347 154.243 500.347 161.195V420.681C500.347 427.632 496.643 434.049 490.625 437.52L265.896 567.273Z" fill="#6F6D7A" stroke="#6F6D7A" stroke-width="22.2222"/>
<path fill-rule="evenodd" clip-rule="evenodd" d="M161.83 181.67H220.017C220.345 181.67 220.611 181.936 220.611 182.264V222.639C220.611 222.967 220.345 223.233 220.017 223.233H161.83C161.502 223.233 161.236 222.967 161.236 222.639V182.264C161.236 181.936 161.502 181.67 161.83 181.67ZM207.548 208.983H213.783C214.111 208.983 214.376 209.249 214.376 209.577V215.811C214.376 216.139 214.111 216.405 213.783 216.405H207.548C207.22 216.405 206.954 216.139 206.954 215.811V209.577C206.954 209.249 207.22 208.983 207.548 208.983Z" fill="#DDDDDD"/>
<path d="M343.22 153.764H299.876C299.548 153.764 299.283 154.03 299.283 154.358V191.764C299.283 192.092 299.548 192.358 299.876 192.358H343.22C343.548 192.358 343.814 192.092 343.814 191.764V154.358C343.814 154.03 343.548 153.764 343.22 153.764Z" fill="#DDDDDD"/>
<path d="M350.642 191.467H292.455C292.127 191.467 291.861 191.733 291.861 192.061V198.295C291.861 198.623 292.127 198.889 292.455 198.889H350.642C350.97 198.889 351.236 198.623 351.236 198.295V192.061C351.236 191.733 350.97 191.467 350.642 191.467Z" fill="#DDDDDD"/>
<path fill-rule="evenodd" clip-rule="evenodd" d="M161.83 229.467H220.017C220.345 229.467 220.611 229.733 220.611 230.061V303.092C220.611 303.42 220.345 303.686 220.017 303.686H161.83C161.502 303.686 161.236 303.42 161.236 303.092V230.061C161.236 229.733 161.502 229.467 161.83 229.467ZM207.548 236.889H213.783C214.111 236.889 214.376 237.155 214.376 237.483V251.139C214.376 251.467 214.111 251.733 213.783 251.733H207.548C207.22 251.733 206.954 251.467 206.954 251.139V237.483C206.954 237.155 207.22 236.889 207.548 236.889Z" fill="#DDDDDD"/>
<path fill-rule="evenodd" clip-rule="evenodd" d="M227.142 229.467H285.33C285.657 229.467 285.923 229.733 285.923 230.061V263.014C285.923 263.342 285.657 263.608 285.33 263.608H227.142C226.814 263.608 226.548 263.342 226.548 263.014V230.061C226.548 229.733 226.814 229.467 227.142 229.467ZM245.845 241.342H266.923C267.251 241.342 267.517 241.608 267.517 241.936V251.139C267.517 251.467 267.251 251.733 266.923 251.733H245.845C245.517 251.733 245.251 251.467 245.251 251.139V241.936C245.251 241.608 245.517 241.342 245.845 241.342Z" fill="#DDDDDD"/>
<path fill-rule="evenodd" clip-rule="evenodd" d="M292.455 269.545H350.642C350.97 269.545 351.236 269.811 351.236 270.139V303.092C351.236 303.42 350.97 303.686 350.642 303.686H292.455C292.127 303.686 291.861 303.42 291.861 303.092V270.139C291.861 269.811 292.127 269.545 292.455 269.545ZM334.017 277.858H343.22C343.548 277.858 343.814 278.124 343.814 278.452V295.077C343.814 295.405 343.548 295.67 343.22 295.67H334.017C333.689 295.67 333.423 295.405 333.423 295.077V278.452C333.423 278.124 333.689 277.858 334.017 277.858Z" fill="#DDDDDD"/>
<path fill-rule="evenodd" clip-rule="evenodd" d="M226.845 269.545H285.033C285.361 269.545 285.626 269.811 285.626 270.139V303.092C285.626 303.42 285.361 303.686 285.033 303.686H226.845C226.517 303.686 226.251 303.42 226.251 303.092V270.139C226.251 269.811 226.517 269.545 226.845 269.545ZM245.845 281.42H266.923C267.251 281.42 267.517 281.686 267.517 282.014V291.217C267.517 291.545 267.251 291.811 266.923 291.811H245.845C245.517 291.811 245.251 291.545 245.251 291.217V282.014C245.251 281.686 245.517 281.42 245.845 281.42Z" fill="#DDDDDD"/>
<path fill-rule="evenodd" clip-rule="evenodd" d="M350.642 229.467H292.455C292.127 229.467 291.861 229.733 291.861 230.061V263.014C291.861 263.342 292.127 263.608 292.455 263.608H350.642C350.97 263.608 351.236 263.342 351.236 263.014V230.061C351.236 229.733 350.97 229.467 350.642 229.467ZM309.08 241.342H299.876C299.548 241.342 299.283 241.608 299.283 241.936V251.139C299.283 251.467 299.548 251.733 299.876 251.733H309.08C309.407 251.733 309.673 251.467 309.673 251.139V241.936C309.673 241.608 309.407 241.342 309.08 241.342ZM316.205 241.342H325.408C325.736 241.342 326.001 241.608 326.001 241.936V251.139C326.001 251.467 325.736 251.733 325.408 251.733H316.205C315.877 251.733 315.611 251.467 315.611 251.139V241.936C315.611 241.608 315.877 241.342 316.205 241.342Z" fill="#DDDDDD"/>
<path d="M60.8198 399.412C56.0198 399.412 52.2758 398.188 49.5878 395.74C46.9478 393.244 45.6278 389.692 45.6278 385.084V345.34H59.3078V384.364C59.3078 385.804 59.6678 386.908 60.3878 387.676C61.1558 388.444 62.2118 388.828 63.5558 388.828C64.6598 388.828 65.6918 388.588 66.6518 388.108L67.2278 398.404C65.1638 399.076 63.0278 399.412 60.8198 399.412ZM113.176 359.74V398.764H100.144V394.588C98.7036 396.172 96.9756 397.372 94.9596 398.188C92.9436 399.004 90.8076 399.412 88.5516 399.412C83.5116 399.412 79.4796 397.924 76.4556 394.948C73.4796 391.972 71.9916 387.508 71.9916 381.556V359.74H85.6716V379.324C85.6716 382.252 86.2236 384.388 87.3276 385.732C88.4316 387.076 90.0396 387.748 92.1516 387.748C94.3116 387.748 96.0636 387.004 97.4076 385.516C98.7996 383.98 99.4956 381.652 99.4956 378.532V359.74H113.176ZM139.699 385.084L135.667 389.188V398.764H121.987V345.34H135.667V373.348L149.635 359.74H165.835L149.635 376.444L167.203 398.764H150.643L139.699 385.084ZM190.469 388.972C192.341 388.972 193.949 388.708 195.293 388.18C196.685 387.652 198.077 386.788 199.469 385.588L206.597 393.076C202.901 397.3 197.381 399.412 190.037 399.412C185.477 399.412 181.469 398.548 178.013 396.82C174.557 395.092 171.869 392.692 169.949 389.62C168.077 386.548 167.141 383.068 167.141 379.18C167.141 375.34 168.077 371.908 169.949 368.884C171.821 365.812 174.389 363.412 177.653 361.684C180.965 359.956 184.661 359.092 188.741 359.092C192.533 359.092 195.989 359.884 199.109 361.468C202.277 363.004 204.797 365.284 206.669 368.308C208.541 371.284 209.477 374.836 209.477 378.964L181.613 384.292C183.101 387.412 186.053 388.972 190.469 388.972ZM188.813 368.812C186.461 368.812 184.541 369.556 183.053 371.044C181.565 372.484 180.725 374.572 180.533 377.308L196.373 374.212C195.893 372.58 194.981 371.284 193.637 370.324C192.293 369.316 190.685 368.812 188.813 368.812ZM261.289 359.092C264.841 359.092 268.057 359.908 270.937 361.54C273.865 363.172 276.169 365.524 277.849 368.596C279.577 371.62 280.441 375.148 280.441 379.18C280.441 383.212 279.577 386.764 277.849 389.836C276.169 392.908 273.865 395.284 270.937 396.964C268.057 398.596 264.841 399.412 261.289 399.412C256.153 399.412 252.313 397.9 249.769 394.876V398.764H236.737V345.34H250.417V363.124C253.057 360.436 256.681 359.092 261.289 359.092ZM258.409 388.54C260.809 388.54 262.777 387.724 264.313 386.092C265.849 384.412 266.617 382.108 266.617 379.18C266.617 376.3 265.849 374.044 264.313 372.412C262.777 370.78 260.809 369.964 258.409 369.964C256.009 369.964 254.041 370.78 252.505 372.412C250.969 374.044 250.201 376.3 250.201 379.18C250.201 382.108 250.969 384.412 252.505 386.092C254.041 387.724 256.009 388.54 258.409 388.54ZM327.84 359.74V398.764H314.808V394.588C313.368 396.172 311.64 397.372 309.624 398.188C307.608 399.004 305.472 399.412 303.216 399.412C298.176 399.412 294.144 397.924 291.12 394.948C288.144 391.972 286.656 387.508 286.656 381.556V359.74H300.336V379.324C300.336 382.252 300.888 384.388 301.992 385.732C303.096 387.076 304.704 387.748 306.816 387.748C308.976 387.748 310.728 387.004 312.072 385.516C313.464 383.98 314.16 381.652 314.16 378.532V359.74H327.84ZM336.651 359.74H350.331V398.764H336.651V359.74ZM343.491 355.42C340.995 355.42 338.979 354.724 337.443 353.332C335.907 351.94 335.139 350.212 335.139 348.148C335.139 346.084 335.907 344.356 337.443 342.964C338.979 341.572 340.995 340.876 343.491 340.876C345.987 340.876 348.003 341.548 349.539 342.892C351.075 344.188 351.843 345.868 351.843 347.932C351.843 350.092 351.075 351.892 349.539 353.332C348.003 354.724 345.987 355.42 343.491 355.42ZM374.414 399.412C369.614 399.412 365.87 398.188 363.182 395.74C360.542 393.244 359.222 389.692 359.222 385.084V345.34H372.902V384.364C372.902 385.804 373.262 386.908 373.982 387.676C374.75 388.444 375.806 388.828 377.15 388.828C378.254 388.828 379.286 388.588 380.246 388.108L380.822 398.404C378.758 399.076 376.622 399.412 374.414 399.412ZM426.498 345.34V398.764H413.466V394.876C410.922 397.9 407.106 399.412 402.018 399.412C398.466 399.412 395.226 398.596 392.298 396.964C389.37 395.284 387.042 392.908 385.314 389.836C383.634 386.764 382.794 383.212 382.794 379.18C382.794 375.148 383.634 371.62 385.314 368.596C387.042 365.524 389.37 363.172 392.298 361.54C395.226 359.908 398.466 359.092 402.018 359.092C406.674 359.092 410.274 360.436 412.818 363.124V345.34H426.498ZM404.898 388.54C407.25 388.54 409.194 387.724 410.73 386.092C412.266 384.412 413.034 382.108 413.034 379.18C413.034 376.3 412.266 374.044 410.73 372.412C409.242 370.78 407.298 369.964 404.898 369.964C402.498 369.964 400.53 370.78 398.994 372.412C397.458 374.044 396.69 376.3 396.69 379.18C396.69 382.108 397.458 384.412 398.994 386.092C400.53 387.724 402.498 388.54 404.898 388.54ZM449.484 399.412C446.22 399.412 443.004 399.052 439.836 398.332C436.668 397.564 434.124 396.58 432.204 395.38L436.308 386.02C438.084 387.124 440.196 388.012 442.644 388.684C445.092 389.308 447.516 389.62 449.916 389.62C452.124 389.62 453.684 389.404 454.596 388.972C455.556 388.492 456.036 387.82 456.036 386.956C456.036 386.092 455.46 385.492 454.308 385.156C453.204 384.772 451.428 384.412 448.98 384.076C445.86 383.692 443.196 383.188 440.988 382.564C438.828 381.94 436.956 380.788 435.372 379.108C433.788 377.428 432.996 375.076 432.996 372.052C432.996 369.556 433.74 367.348 435.228 365.428C436.716 363.46 438.876 361.924 441.708 360.82C444.588 359.668 448.02 359.092 452.004 359.092C454.836 359.092 457.644 359.38 460.428 359.956C463.212 360.532 465.54 361.348 467.412 362.404L463.308 371.692C459.852 369.772 456.108 368.812 452.076 368.812C449.916 368.812 448.332 369.076 447.324 369.604C446.316 370.084 445.812 370.732 445.812 371.548C445.812 372.46 446.364 373.108 447.468 373.492C448.572 373.828 450.396 374.188 452.94 374.572C456.156 375.052 458.82 375.604 460.932 376.228C463.044 376.852 464.868 378.004 466.404 379.684C467.988 381.316 468.78 383.62 468.78 386.596C468.78 389.044 468.036 391.252 466.548 393.22C465.06 395.14 462.852 396.652 459.924 397.756C457.044 398.86 453.564 399.412 449.484 399.412Z" fill="#DDDDDD"/>
</svg>
