<svg width="190" height="150" viewBox="0 0 190 150" fill="none" xmlns="http://www.w3.org/2000/svg">
<path fill-rule="evenodd" clip-rule="evenodd" d="M0.59375 27.9062H58.7812C59.1092 27.9062 59.375 28.1721 59.375 28.5V68.875C59.375 69.2029 59.1092 69.4688 58.7812 69.4688H0.593749C0.26583 69.4688 0 69.2029 0 68.875V28.5C0 28.1721 0.265831 27.9062 0.59375 27.9062ZM46.3125 55.2188H52.5468C52.8748 55.2188 53.1406 55.4846 53.1406 55.8125V62.0469C53.1406 62.3748 52.8748 62.6406 52.5468 62.6406H46.3125C45.9846 62.6406 45.7187 62.3748 45.7187 62.0469V55.8125C45.7187 55.4846 45.9846 55.2188 46.3125 55.2188Z" fill="#DDDDDD"/>
<path d="M181.984 0H138.641C138.313 0 138.047 0.265831 138.047 0.59375V38C138.047 38.3279 138.313 38.5938 138.641 38.5938H181.984C182.312 38.5938 182.578 38.3279 182.578 38V0.59375C182.578 0.265831 182.312 0 181.984 0Z" fill="#DDDDDD"/>
<path d="M189.406 37.7031H131.219C130.891 37.7031 130.625 37.969 130.625 38.2969V44.5312C130.625 44.8592 130.891 45.125 131.219 45.125H189.406C189.734 45.125 190 44.8592 190 44.5312V38.2969C190 37.969 189.734 37.7031 189.406 37.7031Z" fill="#DDDDDD"/>
<path fill-rule="evenodd" clip-rule="evenodd" d="M0.59375 75.7031H58.7812C59.1092 75.7031 59.375 75.969 59.375 76.2969V149.328C59.375 149.656 59.1092 149.922 58.7812 149.922H0.593749C0.26583 149.922 0 149.656 0 149.328V76.2969C0 75.969 0.265831 75.7031 0.59375 75.7031ZM46.3125 83.125H52.5468C52.8748 83.125 53.1406 83.3908 53.1406 83.7188V97.375C53.1406 97.7029 52.8748 97.9688 52.5468 97.9688H46.3125C45.9846 97.9688 45.7187 97.7029 45.7187 97.375V83.7188C45.7187 83.3908 45.9846 83.125 46.3125 83.125Z" fill="#DDDDDD"/>
<path fill-rule="evenodd" clip-rule="evenodd" d="M65.9063 75.7031H124.094C124.422 75.7031 124.688 75.969 124.688 76.2969V109.25C124.688 109.578 124.422 109.844 124.094 109.844H65.9062C65.5783 109.844 65.3125 109.578 65.3125 109.25V76.2969C65.3125 75.969 65.5783 75.7031 65.9063 75.7031ZM84.6094 87.5781H105.688C106.015 87.5781 106.281 87.844 106.281 88.1719V97.375C106.281 97.7029 106.015 97.9688 105.688 97.9688H84.6094C84.2815 97.9688 84.0156 97.7029 84.0156 97.375V88.1719C84.0156 87.844 84.2815 87.5781 84.6094 87.5781Z" fill="#DDDDDD"/>
<path fill-rule="evenodd" clip-rule="evenodd" d="M131.219 115.781H189.406C189.734 115.781 190 116.047 190 116.375V149.328C190 149.656 189.734 149.922 189.406 149.922H131.219C130.891 149.922 130.625 149.656 130.625 149.328V116.375C130.625 116.047 130.891 115.781 131.219 115.781ZM172.781 124.094H181.984C182.312 124.094 182.578 124.36 182.578 124.688V141.312C182.578 141.64 182.312 141.906 181.984 141.906H172.781C172.453 141.906 172.188 141.64 172.188 141.312V124.688C172.188 124.36 172.453 124.094 172.781 124.094Z" fill="#DDDDDD"/>
<path fill-rule="evenodd" clip-rule="evenodd" d="M65.6093 115.781H123.797C124.125 115.781 124.391 116.047 124.391 116.375V149.328C124.391 149.656 124.125 149.922 123.797 149.922H65.6093C65.2814 149.922 65.0156 149.656 65.0156 149.328V116.375C65.0156 116.047 65.2814 115.781 65.6093 115.781ZM84.6094 127.656H105.688C106.015 127.656 106.281 127.922 106.281 128.25V137.453C106.281 137.781 106.015 138.047 105.688 138.047H84.6094C84.2815 138.047 84.0156 137.781 84.0156 137.453V128.25C84.0156 127.922 84.2815 127.656 84.6094 127.656Z" fill="#DDDDDD"/>
<path fill-rule="evenodd" clip-rule="evenodd" d="M189.406 75.7031H131.219C130.891 75.7031 130.625 75.969 130.625 76.2969V109.25C130.625 109.578 130.891 109.844 131.219 109.844H189.406C189.734 109.844 190 109.578 190 109.25V76.2969C190 75.969 189.734 75.7031 189.406 75.7031ZM147.844 87.5781H138.641C138.313 87.5781 138.047 87.844 138.047 88.1719V97.375C138.047 97.7029 138.313 97.9688 138.641 97.9688H147.844C148.172 97.9688 148.438 97.7029 148.438 97.375V88.1719C148.438 87.844 148.172 87.5781 147.844 87.5781ZM154.969 87.5781H164.172C164.5 87.5781 164.766 87.844 164.766 88.1719V97.375C164.766 97.7029 164.5 97.9688 164.172 97.9688H154.969C154.641 97.9688 154.375 97.7029 154.375 97.375V88.1719C154.375 87.844 154.641 87.5781 154.969 87.5781Z" fill="#DDDDDD"/>
</svg>
