<svg width="566" height="79" viewBox="0 0 566 79" fill="none" xmlns="http://www.w3.org/2000/svg">
<path d="M21.112 78.864C14.712 78.864 9.72 77.232 6.136 73.968C2.616 70.64 0.856 65.904 0.856 59.76V6.768H19.096V58.8C19.096 60.72 19.576 62.192 20.536 63.216C21.56 64.24 22.968 64.752 24.76 64.752C26.232 64.752 27.608 64.432 28.888 63.792L29.656 77.52C26.904 78.416 24.056 78.864 21.112 78.864ZM90.9198 25.968V78H73.5438V72.432C71.6238 74.544 69.3198 76.144 66.6318 77.232C63.9438 78.32 61.0958 78.864 58.0878 78.864C51.3678 78.864 45.9918 76.88 41.9598 72.912C37.9918 68.944 36.0078 62.992 36.0078 55.056V25.968H54.2478V52.08C54.2478 55.984 54.9838 58.832 56.4558 60.624C57.9278 62.416 60.0718 63.312 62.8878 63.312C65.7678 63.312 68.1038 62.32 69.8958 60.336C71.7518 58.288 72.6798 55.184 72.6798 51.024V25.968H90.9198ZM126.285 59.76L120.909 65.232V78H102.669V6.768H120.909V44.112L139.533 25.968H161.133L139.533 48.24L162.957 78H140.877L126.285 59.76ZM193.977 64.944C196.473 64.944 198.617 64.592 200.409 63.888C202.265 63.184 204.121 62.032 205.977 60.432L215.481 70.416C210.553 76.048 203.193 78.864 193.401 78.864C187.321 78.864 181.977 77.712 177.369 75.408C172.761 73.104 169.177 69.904 166.617 65.808C164.121 61.712 162.873 57.072 162.873 51.888C162.873 46.768 164.121 42.192 166.617 38.16C169.113 34.064 172.537 30.864 176.889 28.56C181.305 26.256 186.233 25.104 191.673 25.104C196.729 25.104 201.337 26.16 205.497 28.272C209.721 30.32 213.081 33.36 215.577 37.392C218.073 41.36 219.321 46.096 219.321 51.6L182.169 58.704C184.153 62.864 188.089 64.944 193.977 64.944ZM191.769 38.064C188.633 38.064 186.073 39.056 184.089 41.04C182.105 42.96 180.985 45.744 180.729 49.392L201.849 45.264C201.209 43.088 199.993 41.36 198.201 40.08C196.409 38.736 194.265 38.064 191.769 38.064ZM288.405 25.104C293.141 25.104 297.429 26.192 301.269 28.368C305.173 30.544 308.245 33.68 310.485 37.776C312.789 41.808 313.941 46.512 313.941 51.888C313.941 57.264 312.789 62 310.485 66.096C308.245 70.192 305.173 73.36 301.269 75.6C297.429 77.776 293.141 78.864 288.405 78.864C281.557 78.864 276.437 76.848 273.045 72.816V78H255.669V6.768H273.909V30.48C277.429 26.896 282.261 25.104 288.405 25.104ZM284.565 64.368C287.765 64.368 290.389 63.28 292.437 61.104C294.485 58.864 295.509 55.792 295.509 51.888C295.509 48.048 294.485 45.04 292.437 42.864C290.389 40.688 287.765 39.6 284.565 39.6C281.365 39.6 278.741 40.688 276.693 42.864C274.645 45.04 273.621 48.048 273.621 51.888C273.621 55.792 274.645 58.864 276.693 61.104C278.741 63.28 281.365 64.368 284.565 64.368ZM377.139 25.968V78H359.763V72.432C357.843 74.544 355.539 76.144 352.851 77.232C350.163 78.32 347.315 78.864 344.307 78.864C337.587 78.864 332.211 76.88 328.179 72.912C324.211 68.944 322.227 62.992 322.227 55.056V25.968H340.467V52.08C340.467 55.984 341.203 58.832 342.675 60.624C344.147 62.416 346.291 63.312 349.107 63.312C351.987 63.312 354.323 62.32 356.115 60.336C357.971 58.288 358.899 55.184 358.899 51.024V25.968H377.139ZM388.887 25.968H407.127V78H388.887V25.968ZM398.007 20.208C394.679 20.208 391.991 19.28 389.943 17.424C387.895 15.568 386.871 13.264 386.871 10.512C386.871 7.76 387.895 5.456 389.943 3.6C391.991 1.744 394.679 0.815998 398.007 0.815998C401.335 0.815998 404.023 1.712 406.071 3.504C408.119 5.232 409.143 7.472 409.143 10.224C409.143 13.104 408.119 15.504 406.071 17.424C404.023 19.28 401.335 20.208 398.007 20.208ZM439.237 78.864C432.837 78.864 427.845 77.232 424.261 73.968C420.741 70.64 418.981 65.904 418.981 59.76V6.768H437.221V58.8C437.221 60.72 437.701 62.192 438.661 63.216C439.685 64.24 441.093 64.752 442.885 64.752C444.357 64.752 445.733 64.432 447.013 63.792L447.781 77.52C445.029 78.416 442.181 78.864 439.237 78.864ZM508.683 6.768V78H491.307V72.816C487.915 76.848 482.827 78.864 476.043 78.864C471.307 78.864 466.987 77.776 463.083 75.6C459.179 73.36 456.075 70.192 453.771 66.096C451.531 62 450.411 57.264 450.411 51.888C450.411 46.512 451.531 41.808 453.771 37.776C456.075 33.68 459.179 30.544 463.083 28.368C466.987 26.192 471.307 25.104 476.043 25.104C482.251 25.104 487.051 26.896 490.443 30.48V6.768H508.683ZM479.883 64.368C483.019 64.368 485.611 63.28 487.659 61.104C489.707 58.864 490.731 55.792 490.731 51.888C490.731 48.048 489.707 45.04 487.659 42.864C485.675 40.688 483.083 39.6 479.883 39.6C476.683 39.6 474.059 40.688 472.011 42.864C469.963 45.04 468.939 48.048 468.939 51.888C468.939 55.792 469.963 58.864 472.011 61.104C474.059 63.28 476.683 64.368 479.883 64.368ZM539.331 78.864C534.979 78.864 530.691 78.384 526.467 77.424C522.243 76.4 518.851 75.088 516.291 73.488L521.763 61.008C524.131 62.48 526.947 63.664 530.211 64.56C533.475 65.392 536.707 65.808 539.906 65.808C542.851 65.808 544.931 65.52 546.147 64.944C547.427 64.304 548.067 63.408 548.067 62.256C548.067 61.104 547.299 60.304 545.763 59.856C544.291 59.344 541.923 58.864 538.659 58.416C534.499 57.904 530.947 57.232 528.003 56.4C525.123 55.568 522.627 54.032 520.515 51.792C518.403 49.552 517.347 46.416 517.347 42.384C517.347 39.056 518.339 36.112 520.323 33.552C522.307 30.928 525.187 28.88 528.963 27.408C532.803 25.872 537.379 25.104 542.691 25.104C546.467 25.104 550.211 25.488 553.923 26.256C557.635 27.024 560.739 28.112 563.235 29.52L557.763 41.904C553.155 39.344 548.163 38.064 542.786 38.064C539.907 38.064 537.795 38.416 536.451 39.12C535.107 39.76 534.435 40.624 534.435 41.712C534.435 42.928 535.171 43.792 536.643 44.304C538.115 44.752 540.547 45.232 543.939 45.744C548.227 46.384 551.779 47.12 554.595 47.952C557.411 48.784 559.843 50.32 561.891 52.56C564.003 54.736 565.059 57.808 565.059 61.776C565.059 65.04 564.067 67.984 562.083 70.608C560.099 73.168 557.155 75.184 553.251 76.656C549.411 78.128 544.771 78.864 539.331 78.864Z" fill="white"/>
</svg>
